HIERARCHY
ROOT hip
{
	OFFSET 0.000000 0.000000 0.000000 
	CHANNELS 6 Xposition Yposition Zposition Xrotation Zrotation Yrotation
	JOINT abdomen
	{
		OFFSET 0.000000 3.402643 0.000000 
		CHANNELS 3 Xrotation Zrotation Yrotation
		JOINT chest
		{
			OFFSET 0.000000 8.438565 -0.680529 
			CHANNELS 3 Xrotation Zrotation Yrotation
			JOINT neck
			{
				OFFSET 0.000000 10.207942 -0.272212 
				CHANNELS 3 Xrotation Zrotation Yrotation
				JOINT head
				{
					OFFSET 0.000000 3.130431 0.000000 
					CHANNELS 3 Xrotation Zrotation Yrotation
					End Site
					{
						OFFSET 0.000000 3.130435 0.000000 
					}
				}
			}
			JOINT lCollar
			{
				OFFSET 3.470700 6.669187 -0.816635 
				CHANNELS 3 Yrotation Zrotation Xrotation
				JOINT lShldr
				{
					OFFSET 3.198488 0.000000 0.000000 
					CHANNELS 3 Zrotation Yrotation Xrotation
					JOINT lForeArm
					{
						OFFSET 10.139888 0.000000 0.000000 
						CHANNELS 3 Yrotation Zrotation Xrotation
						JOINT lHand
						{
							OFFSET 8.370511 0.000000 0.000000 
							CHANNELS 3 Zrotation Yrotation Xrotation
							End Site
							{
								OFFSET 4.083176 0.000000 0.000000 
							}
						}
					}
				}
			}
			JOINT rCollar
			{
				OFFSET -3.470700 6.669187 -0.816635 
				CHANNELS 3 Yrotation Zrotation Xrotation
				JOINT rShldr
				{
					OFFSET -3.198488 0.000000 0.000000 
					CHANNELS 3 Zrotation Yrotation Xrotation
					JOINT rForeArm
					{
						OFFSET -10.139888 0.000000 0.000000 
						CHANNELS 3 Yrotation Zrotation Xrotation
						JOINT rHand
						{
							OFFSET -8.370511 0.000000 0.000000 
							CHANNELS 3 Zrotation Yrotation Xrotation
							End Site
							{
								OFFSET -4.083176 0.000000 0.000000 
							}
						}
					}
				}
			}
		}
	}
	JOINT lThigh
	{
		OFFSET 5.308129 -1.633274 1.361059 
		CHANNELS 3 Xrotation Zrotation Yrotation
		JOINT lShin
		{
			OFFSET -2.041588 -20.007561 0.000000 
			CHANNELS 3 Xrotation Zrotation Yrotation
			JOINT lFoot
			{
				OFFSET 0.000000 -19.190928 -1.224953 
				CHANNELS 3 Xrotation Yrotation Zrotation
				End Site
				{
					OFFSET 0.000000 -2.449906 4.627600 
				}
			}
		}
	}
	JOINT rThigh
	{
		OFFSET -5.308129 -1.633274 1.361059 
		CHANNELS 3 Xrotation Zrotation Yrotation
		JOINT rShin
		{
			OFFSET 2.041588 -20.007561 0.000000 
			CHANNELS 3 Xrotation Zrotation Yrotation
			JOINT rFoot
			{
				OFFSET 0.000000 -19.190928 -1.224953 
				CHANNELS 3 Xrotation Yrotation Zrotation
				End Site
				{
					OFFSET 0.000000 -2.449906 4.627600 
				}
			}
		}
	}
}
MOTION
Frames: 15
Frame Time: 0.033333
-26.380049 49.167927 11.210361 -6.660915 0.863275 4.166779 0.000000 0.000000 0.000000 9.015119 -1.022372 1.097422 1.168465 -1.958609 3.137599 16.338263 -0.561253 -0.105619 -0.045843 -7.619324 9.568307 -81.259315 -62.032890 46.729492 -37.384499 -11.202034 3.378098 21.851124 23.492329 -11.063450 4.754931 11.439612 9.688955 67.944405 55.949158 33.753189 38.100060 10.365513 3.329910 -28.372446 -17.715828 -7.658296 -1.170687 6.144040 3.054061 18.678965 -3.675120 10.006879 -47.770260 1.752215 -3.955125 6.285318 -10.658582 -8.400062 10.301818 4.213426 -26.082474 -10.550599 -0.701056 7.525011 
-26.416018 49.197124 11.199753 -6.660865 0.834176 4.052989 0.000000 0.000000 0.000000 9.063900 -1.002946 1.167989 0.962145 -1.880928 3.063880 15.889465 -0.842750 -0.195767 0.034187 -7.647516 9.651532 -80.575485 -61.246517 45.842251 -37.900925 -10.972941 3.375477 21.775688 22.437592 -11.840372 4.853343 11.634182 9.759083 67.246460 54.731243 32.130463 40.752998 9.176486 3.292023 -27.797298 -18.697895 -8.328691 -0.965933 6.182989 3.082427 18.283123 -3.624107 10.374053 -47.679806 1.793283 -4.052510 6.244053 -10.539409 -8.315184 10.308312 4.182527 -26.132870 -10.782616 -0.704806 7.311204 
-26.448055 49.189831 11.200418 -6.553353 0.785848 4.011297 0.000000 0.000000 0.000000 9.073722 -1.022205 1.233095 0.939852 -1.655266 2.912494 15.294724 -1.309382 -0.202611 0.097707 -7.537790 9.667373 -79.693886 -59.826508 44.657375 -40.450382 -10.096866 3.355328 22.629295 20.505827 -11.953128 4.728440 11.889574 9.764367 67.085907 53.037441 31.211679 44.088627 7.781122 3.261054 -30.053085 -17.952312 -6.230187 -1.122718 6.344627 3.172643 18.394768 -3.655013 10.576197 -47.628090 1.824869 -4.159401 6.100530 -10.504294 -8.257210 10.365419 4.268538 -26.130976 -10.950950 -0.716823 7.330225 
-26.475151 49.173344 11.207064 -6.436125 0.766623 4.112749 0.000000 0.000000 0.000000 9.054243 -1.041549 1.162008 0.992869 -1.826197 2.851397 14.766283 -0.834991 -0.314899 0.177865 -7.879739 9.629517 -78.730179 -59.014202 44.289974 -42.786102 -9.365426 3.342754 23.957565 19.200449 -11.649877 4.505553 11.708805 9.762531 68.162933 51.247303 30.124149 46.784389 6.497945 3.225951 -30.667414 -15.787893 -4.287464 -1.347383 6.413017 3.199257 18.618584 -3.664727 10.460915 -47.656639 1.850113 -4.184808 5.982069 -10.434422 -8.186504 10.405835 4.241066 -26.266909 -10.857805 -0.715141 7.459243 
-26.491886 49.172710 11.197210 -6.494817 0.824752 4.183465 0.000000 0.000000 0.000000 9.103312 -1.118548 1.129221 1.225759 -1.741646 2.648156 14.629436 -0.757510 -0.333990 0.085105 -7.936637 9.733918 -78.457382 -59.290836 44.726471 -43.099998 -9.328344 3.342547 25.390848 17.923979 -10.695812 4.293914 12.397486 9.843295 67.813995 51.170036 29.985590 47.079716 6.408333 3.224771 -32.667500 -14.346754 -3.352640 -1.240003 6.372515 3.136518 18.549866 -3.615661 10.502413 -47.869858 1.893423 -4.241854 6.072456 -10.515558 -8.327015 10.472566 4.297480 -26.412958 -11.044119 -0.734892 7.507357 
-26.503603 49.185799 11.185481 -6.514350 0.824719 4.124590 0.000000 0.000000 0.000000 9.035001 -1.138050 1.000533 1.341768 -1.852785 2.748819 15.234911 -0.727522 -0.201884 0.068073 -7.957133 9.619696 -78.864296 -60.046776 45.232399 -41.487759 -9.883871 3.355647 25.592596 18.489124 -9.490411 4.403614 11.849986 9.740528 68.664368 52.667904 31.624651 44.143291 7.671002 3.255692 -33.880753 -14.526669 -3.446684 -1.181003 6.373012 3.165171 18.380407 -3.640193 10.384059 -47.695858 1.856708 -4.178287 6.022332 -10.454999 -8.269035 10.512774 4.250196 -26.326096 -10.977856 -0.713853 7.353722 
-26.501780 49.186550 11.181656 -6.738887 0.766155 4.098934 0.000000 0.000000 0.000000 9.044589 -1.080154 1.009557 1.228613 -1.951228 2.858312 16.464933 -0.270868 -0.271821 -0.055813 -8.029850 9.646360 -79.779991 -61.157383 45.958946 -39.155449 -10.783124 3.371657 22.938000 22.823904 -12.569038 4.545184 11.937044 9.754037 67.925415 55.302071 33.935551 39.256630 10.005935 3.334220 -29.416862 -16.596106 -6.469114 -0.966850 6.441658 3.204297 18.441254 -3.624120 10.323780 -47.890945 1.860080 -4.186748 6.277154 -10.378771 -8.295449 10.406930 4.252248 -26.422197 -11.056726 -0.729644 7.379999 
-26.503263 49.171829 11.195461 -6.885431 0.795007 4.025105 0.000000 0.000000 0.000000 9.142352 -1.108784 1.090948 0.843322 -1.811223 2.817119 16.856285 -0.802154 -0.282483 -0.043068 -7.275676 9.766808 -81.929146 -61.652882 46.661194 -37.056709 -11.093279 3.370407 21.535246 24.986702 -9.952037 4.634435 11.351123 9.876625 68.363121 56.310280 34.415768 36.747147 11.034615 3.355767 -25.932161 -17.732519 -11.090765 -0.927525 6.363421 3.151169 18.621229 -3.568033 10.299985 -47.626720 1.865636 -4.207384 6.422754 -10.455094 -8.358216 10.369475 4.254178 -26.083611 -10.809670 -0.721800 7.455051 
-26.496998 49.180767 11.194038 -6.826724 0.727230 3.965683 0.000000 0.000000 0.000000 9.142092 -1.022010 1.222110 0.482933 -1.816413 3.084806 16.690290 -0.821825 -0.292675 0.117212 -7.673831 9.726192 -80.372047 -60.995262 45.522758 -37.525215 -10.942154 3.364284 20.558224 22.233988 -8.846897 4.902327 11.533463 9.846374 68.047989 54.623791 33.193069 39.186230 10.002275 3.327582 -27.036657 -18.194691 -9.426366 -0.917854 6.439610 3.214416 18.562431 -3.567835 10.586837 -47.634071 1.878525 -4.294892 6.336070 -10.359921 -8.264754 10.375149 4.258781 -25.994394 -10.825669 -0.705004 7.279431 
-26.487419 49.187943 11.215734 -6.690024 0.746834 4.062800 0.000000 0.000000 0.000000 9.152029 -1.079830 1.241907 0.400862 -1.675516 2.886080 15.841148 -1.085037 -0.343026 0.125950 -7.434433 9.730854 -79.602539 -59.649403 45.035534 -39.645210 -10.456255 3.368446 22.177702 18.843216 -11.475268 4.745119 11.990746 9.837506 67.785797 52.271999 31.699829 43.317097 8.236628 3.271799 -28.156593 -17.306063 -7.445297 -1.024717 6.456919 3.256161 18.457132 -3.603881 10.627347 -47.283463 1.863396 -4.260773 6.138974 -10.375817 -8.222646 10.524653 4.272585 -26.099159 -11.153758 -0.730677 7.305378 
-26.477831 49.172581 11.242613 -6.534017 0.902305 4.261904 0.000000 0.000000 0.000000 9.074195 -1.176500 1.179139 0.582261 -1.944957 2.873029 15.029642 -0.591960 -0.369503 0.144257 -8.061855 9.618955 -78.265259 -58.689602 44.646053 -41.589802 -9.896064 3.354506 24.153851 16.540731 -10.834922 4.582973 11.891999 9.739911 68.903961 49.544678 29.637680 47.039989 6.406913 3.225652 -30.028749 -15.303785 -4.233424 -1.200200 6.281577 3.130914 18.505169 -3.642632 10.258108 -47.589134 1.829318 -4.155137 5.981380 -10.511590 -8.186084 10.697568 4.122737 -26.244404 -10.944354 -0.725294 7.499267 
-26.456928 49.168560 11.277045 -6.602367 0.892480 4.281482 0.000000 0.000000 0.000000 9.103626 -1.214974 1.133291 0.724995 -1.840972 2.874286 15.107782 -0.601572 -0.205402 0.155368 -8.249030 9.651048 -77.629982 -58.895157 44.828491 -41.575962 -9.998558 3.366082 25.785084 13.967203 -9.724790 4.363236 12.650240 9.760479 68.432648 49.057312 29.226078 48.078979 6.014802 3.215343 -31.297709 -13.291797 -3.792285 -1.152310 6.326957 3.191829 18.615965 -3.653823 10.335788 -47.598244 1.844211 -4.178173 6.156428 -10.540033 -8.312981 10.601286 4.260672 -26.230591 -11.031005 -0.724514 7.522952 
-26.426775 49.149681 11.290359 -6.768315 0.843689 4.392071 0.000000 0.000000 0.000000 9.093668 -1.157150 1.074405 1.038576 -1.828523 2.907443 15.459568 -0.746577 -0.089882 -0.116020 -7.910882 9.643497 -78.733368 -59.768433 45.549683 -39.740009 -10.611536 3.370394 25.443544 14.547215 -9.162297 4.212727 12.491209 9.744847 68.452797 50.612049 30.980976 45.727608 7.135622 3.248384 -35.406273 -13.733440 -2.104138 -1.141390 6.349152 3.192739 18.926281 -3.623705 10.190834 -47.872299 1.840621 -4.155624 6.235635 -10.501596 -8.260533 10.837158 4.126339 -26.292358 -11.040767 -0.760611 7.667949 
-26.400991 49.167175 11.281953 -6.826739 0.736926 4.237960 0.000000 0.000000 0.000000 9.024940 -1.041633 0.967229 0.821145 -1.995575 3.217444 16.836437 -0.628224 0.162910 -0.098792 -8.004766 9.556222 -79.531082 -60.612534 45.948685 -38.162964 -11.044365 3.381239 22.030155 20.497547 -9.542144 4.466734 11.686001 9.676949 68.862976 53.273415 33.453655 40.420692 9.568563 3.315876 -29.701218 -16.247093 -7.159692 -1.025304 6.365403 3.152721 18.843014 -3.635480 9.649905 -47.847496 1.768224 -3.989170 6.443239 -10.456368 -8.329018 10.439029 4.129018 -26.088713 -10.590928 -0.695658 7.420326 
-26.389050 49.172581 11.288812 -6.875649 0.785328 4.114300 0.000000 0.000000 0.000000 9.074070 -1.137926 1.068116 0.394455 -2.058899 3.339419 17.695625 -0.472504 -0.017099 0.015269 -7.885996 9.584661 -81.072006 -61.286194 46.890316 -36.925285 -11.283968 3.376765 20.794844 24.153971 -8.581519 4.778149 11.417569 9.710495 68.205605 55.459068 34.515682 36.300056 11.330152 3.360680 -27.571987 -16.885784 -10.338766 -0.908189 6.284667 3.185792 18.735422 -3.674389 10.168309 -47.543930 1.775290 -4.020771 6.295554 -10.514322 -8.273335 10.728690 4.105561 -25.794813 -10.846972 -0.713953 7.372918 
